<svg width="1840" height="1380" viewBox="0 0 1840 1380" fill="none" xmlns="http://www.w3.org/2000/svg">
<g clip-path="url(#clip0_23_681)">
<path d="M735.39 1041.7C735.39 1041.7 761.632 1088.6 806.112 1076.47C807.787 1076.01 809.561 1076.35 810.988 1077.32C823.47 1085.78 847.019 1092.62 878.981 1079.53C880.705 1078.82 882.678 1079 884.229 1080.03C909.776 1096.96 945.658 1102.81 977.359 1077.38C978.315 1076.61 979.605 1076.42 980.746 1076.88C997.596 1083.65 1007.63 1083.24 1028.42 1075.27C1032.03 1073.89 1034.54 1073.35 1036.16 1073.49C1041.23 1073.91 1051.89 1081.43 1073.13 1075.55C1065.79 1097.21 1009.53 1114.13 1009.53 1114.13L825.282 1128.89L727.784 1089.98L735.39 1041.7Z" fill="#93B4F6"/>
<path d="M573.858 827.648C516.759 829.298 510.878 866.372 510.866 875.466C510.841 885.64 514.551 894.909 523.248 897.303C533.857 900.231 538.807 889.933 533.261 886.161C524.861 880.466 526.375 875.355 530.544 872.91C536.437 869.473 566.153 871.893 554.465 920.431C550.296 937.764 543.063 940.159 540.792 947.777C541.599 968.485 551.587 966.934 573.126 966.934C611.589 966.934 639.295 934.054 639.295 895.591C639.27 857.141 612.309 826.544 573.858 827.648Z" fill="#93B4F6"/>
<path d="M1302.24 1052.52C1324.16 1007.42 1307.45 956.164 1269.26 923.669C1244.52 902.626 1254.85 879.809 1266.81 877.774C1273.8 876.583 1282.18 886.509 1273.49 894.239C1271.09 896.361 1274.12 902.056 1283.05 897.862C1289.52 894.822 1298.89 876.223 1283.28 861.632C1268.64 847.934 1249.58 845.515 1229.45 852.786C1194.14 865.553 1183.21 899.524 1189.25 941.548C1193.71 972.567 1201.71 1099.15 1201.71 1099.15L1267.21 1098.03C1282.82 1085.11 1294.11 1069.25 1302.24 1052.52Z" fill="#93B4F6"/>
<path d="M1263.83 972.405C1269.62 982.38 1284.13 978.844 1280.13 969.414C1273.72 954.302 1287.35 950.357 1292.25 953.682C1306.16 963.099 1312.37 996.822 1273.61 1012.23C1254.07 1020 1211.24 1020.61 1164.29 1011.51C1144.65 1036.38 1161.2 1153.54 1277.02 1151.67C1398.9 1149.71 1414.45 1017.12 1385.32 961.896C1367.2 927.564 1318.41 905.876 1282.19 917.427C1263.07 923.507 1249.17 947.093 1263.83 972.405Z" fill="#93B4F6"/>
<path d="M1048.34 1047.81C1050.12 1047.32 1051.48 1046.61 1051.99 1045.6C1053.5 1042.53 1047.82 1039.73 1045.37 1034.05C1042.49 1027.42 1045.04 1020.48 1049.84 1018.04C1056.32 1014.74 1066.88 1017.1 1072.77 1024.63C1079.04 1032.62 1097.95 1069.28 1036.62 1100.95C1085.39 1116.48 1121.27 1059.7 1121.98 1044.94C1124.31 996.489 1089.96 975.843 1061.05 976.935C1034.1 977.952 1023.35 998.461 1024.22 1019.21C1024.92 1035.94 1039.53 1050.24 1048.34 1047.81Z" fill="#93B4F6"/>
<path d="M681.529 1112.75C684.743 1112.75 688.8 1112.72 693.428 1112.63L708.739 1140.03C760.242 1172.86 796.794 1193.74 887.666 1159.26C941.105 1138.99 954.157 1132.03 982.508 1129.55C995.672 1150.27 1026.44 1163.43 1064.46 1167.56L1120.12 1140.19C1120.12 1140.19 1133.67 1076.9 1120.38 1034.89C1094.58 1090.93 1052.77 1092.94 1031.44 1076.18C1029.97 1075.01 1027.86 1075.09 1026.52 1076.42C991.814 1110.69 965.919 1099.01 953.835 1091.85C952.309 1090.95 950.423 1090.93 948.847 1091.75C898.659 1118.06 858.67 1097.1 846.511 1089.21C844.364 1087.81 841.548 1088.14 839.736 1089.95C835.232 1094.43 825.356 1101.79 808.544 1102.66C794.772 1103.38 771.346 1093.49 757.698 1072.46C726.308 1024.08 704.545 950.63 721.742 908.445C727.995 893.11 740.452 887.514 750.465 887.712C763.344 887.973 769.014 897.849 758.964 900.095C753.033 901.423 753.74 912.056 765.614 911.882C780.156 911.671 789.263 897.291 789.263 885.417C789.263 848.096 757.326 826.544 708.652 826.544C651.875 826.544 604.74 879.089 604.74 936.722C604.727 994.342 624.765 1112.75 681.529 1112.75Z" fill="#93B4F6"/>
<path d="M765.441 1176.47C797.167 1186.85 833.273 1187.77 889.205 1167.62C928.239 1153.57 949.356 1134.93 982.521 1129.54C989.023 1139.77 999.805 1148.14 1013.63 1154.52L1085.83 1142.83C1085.83 1142.83 1124.03 1082.36 1100.38 1103.6C1079.03 1122.77 1050.39 1111.22 1036.93 1106.74C1034.83 1106.05 1032.54 1106.42 1030.74 1107.71C1006.07 1125.4 982.521 1129.56 959.903 1119.81C957.111 1118.6 954.022 1118.34 951.726 1120.35C923.45 1145.07 894.181 1134.59 873.435 1121.54C870.917 1119.95 867.678 1120.34 865.47 1122.32C824.24 1159.5 775.665 1132.03 763.059 1118.14C761.521 1116.46 759.213 1115.72 756.967 1116.14C718.107 1123.28 700.6 1094.99 700.6 1094.99C686.778 1126.23 734.795 1158.37 765.441 1176.47Z" fill="#93B4F6"/>
<path d="M1068.93 1118.08C1047.78 1132.57 1009.42 1143.21 994.047 1143.13C1029.21 1179.18 1124.21 1183.24 1174.8 1170.09C1245.57 1151.68 1266.69 1109.2 1266.65 1062.79C1266.54 935.221 1147.79 926.312 1138.47 892.365C1134.18 876.707 1141.1 870.193 1147.38 867.079C1154.59 863.506 1163.26 867.538 1163.4 870.975C1163.57 875.665 1155.1 875.677 1158.92 883.432C1160.86 887.402 1166.3 887.986 1172.09 885.541C1181.54 881.558 1186.7 871.335 1185.07 861.223C1180.42 832.189 1156.93 812.536 1124.42 812.536C1087.47 812.536 1054.21 837.785 1045.79 873.804C1034.66 921.374 1084.34 956.09 1104.76 1002.62C1128.88 1060.35 1092.74 1101.75 1068.93 1118.08Z" fill="#93B4F6"/>
<path d="M628.923 1109.17C719.299 1152.96 743.927 1201.53 836.66 1181.59C729.237 1174.09 701.295 1082.81 715.886 1043.64C721.222 1029.29 734.138 1018.66 748.431 1016.08C754.424 1015 763.829 1015.1 768.481 1021.55C770.566 1024.45 769.288 1027.92 765.578 1029.74C762.427 1031.29 759.263 1033.08 759.499 1038.12C759.846 1045.62 772.874 1049.05 782.043 1039.07C790.591 1029.78 785.653 1005.29 771.881 993.722C754.238 978.92 727.338 975.222 702.139 978.126C639.68 985.309 593.45 1030.86 585.001 1097C596.999 1098.6 614.468 1102.17 628.923 1109.17Z" fill="#93B4F6"/>
<path d="M534.179 1072.17C544.539 1065.61 543.547 1054.91 542.74 1052.09C540.619 1044.63 530.271 1044.85 528.124 1052.3C527.504 1054.46 526.015 1056.24 523.075 1057C512.975 1059.59 509.824 1034.48 523.248 1027.05C544.837 1015.1 573.908 1054.49 535.507 1098.08C575.062 1089.36 619.977 1101.96 656.206 1120.2C675.252 1099.28 688.763 1068.75 688.763 1037.46C688.763 973.187 634.717 921.696 578.474 918.482C520.097 915.145 460.057 953.633 460.901 1011.41C461.77 1070.85 514.092 1084.9 534.179 1072.17Z" fill="#93B4F6"/>
<path d="M952.768 623.881H836.437L838.744 632.988H954.406L952.768 623.881Z" fill="white"/>
<path d="M833.508 330.31H672.212C670.152 330.31 668.204 329.429 666.728 327.816C664.991 325.93 664.122 323.275 664.346 320.558C664.718 316.041 668.304 312.505 672.51 312.505H678.379C680.773 312.505 683.205 312.294 684.768 310.718C686.27 309.217 686.989 306.5 686.977 302.43C686.927 290.122 690.314 280.457 697.039 273.72C706.308 264.414 719.646 263.024 726.767 263.024C734.894 263.024 738.691 268.471 742.351 273.744C746.446 279.638 750.689 285.718 761.322 285.718H777.973C788.792 285.718 795.579 290.842 801.386 303.386L801.547 303.746C804.947 311.103 806.857 314.627 812.962 314.627H833.149C835.642 314.627 837.739 315.483 839.216 317.083C840.506 318.498 841.226 320.396 841.226 322.443C841.213 326.352 838.571 330.31 833.508 330.31ZM672.497 314.987C669.582 314.987 667.075 317.518 666.815 320.756C666.641 322.791 667.274 324.751 668.552 326.141C669.557 327.233 670.86 327.828 672.212 327.828H833.508C837.094 327.828 838.732 325.037 838.732 322.456C838.732 319.801 837.007 317.121 833.149 317.121H812.937C804.971 317.121 802.465 311.686 799.276 304.8L799.115 304.44C793.718 292.765 787.787 288.211 777.96 288.211H761.31C749.386 288.211 744.56 281.288 740.304 275.171C736.693 269.997 733.579 265.518 726.755 265.518C720.018 265.518 707.424 266.809 698.789 275.481C692.548 281.747 689.409 290.817 689.458 302.443C689.471 307.207 688.515 310.483 686.53 312.493C684.322 314.714 681.17 315.011 678.379 315.011H672.497V314.987Z" fill="black"/>
<path d="M1284 721.577H1056.51C1052.15 721.577 1048.52 720.001 1046.01 717.011C1043.83 714.418 1042.62 710.869 1042.62 707.036C1042.62 699.368 1047.66 691.216 1057 691.216H1073.27C1074.82 691.216 1075.94 690.794 1076.69 689.938C1079.27 686.973 1078.14 678.858 1076.73 668.585C1076.33 665.731 1075.92 662.766 1075.55 659.627L1075.49 659.056C1074.05 646.996 1071.05 621.908 1096.57 612.764C1106.36 609.253 1111.21 607.913 1120.01 605.469C1122.29 604.836 1124.85 604.129 1127.85 603.285C1135.74 601.064 1141.55 601.002 1146.67 603.099C1152.92 605.655 1157.97 611.523 1162.14 621.04C1167.6 633.522 1172.08 637.368 1179.3 635.73C1228.52 624.551 1236.38 644.701 1243.98 664.193C1244.45 665.384 1244.91 666.575 1245.38 667.766C1250.27 679.938 1256.19 691.204 1266.38 691.204H1283.52C1293.25 691.204 1298.35 698.971 1298.35 706.651C1298.33 713.847 1293.85 721.577 1284 721.577ZM1057.01 693.698C1049.2 693.698 1045.12 700.41 1045.12 707.036C1045.12 710.286 1046.11 713.264 1047.92 715.423C1049.94 717.83 1052.92 719.096 1056.52 719.096H1284.01C1292.15 719.096 1295.86 712.656 1295.86 706.663C1295.86 700.422 1292 693.698 1283.51 693.698H1266.36C1254.7 693.698 1248.27 681.687 1243.06 668.697C1242.59 667.506 1242.12 666.302 1241.65 665.111C1234.09 645.743 1226.96 627.455 1179.84 638.162C1170.03 640.395 1164.92 633.646 1159.86 622.045C1151.72 603.434 1141.45 602.044 1128.51 605.679C1125.5 606.523 1122.95 607.23 1120.66 607.863C1111.63 610.369 1107.1 611.623 1097.4 615.097C1073.74 623.583 1076.58 647.344 1077.95 658.758L1078.02 659.329C1078.39 662.443 1078.8 665.396 1079.2 668.238C1080.76 679.566 1081.9 687.742 1078.58 691.551C1077.35 692.966 1075.56 693.685 1073.28 693.685H1057.01V693.698Z" fill="black"/>
<path d="M781.558 744.68H576.848C574.019 744.68 571.277 743.489 569.341 741.429C567.381 739.332 566.401 736.59 566.587 733.711C566.934 728.327 571.575 724.108 577.158 724.108H587.233C591.327 724.108 594.652 720.783 594.652 716.689V700.274C594.652 689.938 601.7 681.117 611.787 678.834L640.212 672.419C650.684 670.049 661.429 674.206 667.596 682.99C671.429 688.462 677.708 691.725 684.395 691.725H713.255C724.707 691.725 735.03 698.958 738.951 709.703C742.09 718.314 750.353 724.108 759.522 724.108H781.26C786.843 724.108 791.484 728.327 791.831 733.711C792.017 736.59 791.037 739.332 789.076 741.429C787.128 743.489 784.386 744.68 781.558 744.68ZM577.158 726.59C572.877 726.59 569.329 729.791 569.068 733.873C568.932 736.056 569.664 738.141 571.153 739.729C572.642 741.317 574.664 742.198 576.848 742.198H781.558C783.741 742.198 785.764 741.317 787.253 739.729C788.741 738.141 789.486 736.056 789.337 733.873C789.076 729.791 785.516 726.59 781.247 726.59H759.51C749.298 726.59 740.092 720.15 736.606 710.559C733.045 700.782 723.652 694.206 713.242 694.206H684.383C676.889 694.206 669.854 690.546 665.548 684.417C659.965 676.451 650.225 672.692 640.746 674.838L612.321 681.253C603.375 683.275 597.122 691.092 597.122 700.274V716.689C597.122 722.148 592.68 726.59 587.22 726.59H577.158V726.59Z" fill="black"/>
<path d="M680.252 1084.46L677.956 1083.5C684.21 1068.58 687.51 1052.66 687.51 1037.46C687.51 1007.43 675.537 978.485 653.812 955.941C633.129 934.488 605.646 921.287 578.399 919.724L578.548 917.242C606.403 918.843 634.493 932.317 655.598 954.216C677.783 977.232 689.992 1006.79 689.992 1037.46C690.004 1052.97 686.629 1069.22 680.252 1084.46Z" fill="white"/>
<path d="M715.601 1095.33C709.918 1076.49 709.583 1057.01 714.72 1043.21C720.129 1028.7 733.269 1017.57 748.207 1014.86L748.654 1017.31C734.559 1019.85 722.164 1030.36 717.052 1044.08C712.102 1057.4 712.449 1076.28 717.983 1094.62L715.601 1095.33Z" fill="white"/>
<path d="M760.267 987.543C745.106 979.701 724.509 976.798 702.25 979.354C697.784 979.862 693.329 980.594 689.012 981.5L688.503 979.068C692.895 978.138 697.424 977.406 701.977 976.885C724.708 974.267 745.813 977.269 761.409 985.334L760.267 987.543Z" fill="white"/>
<path d="M841.225 1138.44L840.406 1136.1C849.029 1133.07 857.181 1128.12 864.65 1121.38C867.293 1119 871.177 1118.63 874.105 1120.48C880.706 1124.63 887.195 1127.88 893.373 1130.1L892.53 1132.44C886.177 1130.14 879.539 1126.83 872.777 1122.57C870.78 1121.32 868.124 1121.59 866.313 1123.23C858.596 1130.19 850.159 1135.31 841.225 1138.44Z" fill="white"/>
<path d="M931.489 1133.76L930.695 1131.42C937.718 1129.04 944.517 1125 950.919 1119.41C953.314 1117.32 956.676 1117.05 960.399 1118.66C965.709 1120.95 971.144 1122.49 976.566 1123.2L976.243 1125.66C970.598 1124.9 964.927 1123.32 959.418 1120.95C957.446 1120.09 954.642 1119.46 952.557 1121.28C945.907 1127.08 938.81 1131.28 931.489 1133.76Z" fill="white"/>
<path d="M1008.42 1121.44L1007.52 1119.12C1014.85 1116.31 1022.41 1112.13 1030 1106.68C1032.13 1105.15 1034.87 1104.73 1037.3 1105.55C1038.14 1105.84 1039.04 1106.13 1039.99 1106.47C1045.36 1108.3 1052.72 1110.82 1060.68 1112.14L1060.27 1114.58C1052.11 1113.23 1044.63 1110.67 1039.19 1108.81C1038.24 1108.49 1037.35 1108.18 1036.51 1107.91C1034.82 1107.34 1032.92 1107.63 1031.43 1108.7C1023.69 1114.27 1015.95 1118.57 1008.42 1121.44Z" fill="white"/>
<path d="M787.477 1135.61C775.28 1130.48 766.396 1123.64 762.141 1118.96C760.912 1117.61 759.064 1117 757.19 1117.35C749.584 1118.74 742.214 1118.89 735.303 1117.78L735.701 1115.34C742.326 1116.39 749.411 1116.26 756.743 1114.92C759.461 1114.41 762.178 1115.31 763.989 1117.31C768.071 1121.8 776.632 1128.37 788.444 1133.34L787.477 1135.61Z" fill="white"/>
<path d="M800.926 1176.68C773.766 1168.83 750.974 1153.71 734.993 1132.97L736.953 1131.46C752.599 1151.78 774.957 1166.58 801.608 1174.3L800.926 1176.68Z" fill="white"/>
<path d="M1029.69 1137.25L1028.95 1134.88C1044.78 1129.89 1058.73 1123.57 1068.23 1117.05C1075.4 1112.14 1093.19 1098.25 1103.7 1075.36C1114.16 1052.57 1114.14 1028.25 1103.62 1003.09L1105.91 1002.13C1116.71 1027.97 1116.72 1052.95 1105.96 1076.4C1095.2 1099.87 1076.98 1114.09 1069.65 1119.11C1059.93 1125.75 1045.75 1132.19 1029.69 1137.25Z" fill="white"/>
<path d="M1248.26 1127.68L1246.28 1126.18C1258.98 1109.33 1265.42 1088.01 1265.4 1062.78C1265.33 995.012 1231.15 962.294 1205.44 943.583L1206.91 941.573C1225.43 955.06 1239.2 969.775 1249.01 986.587C1261.5 1007.99 1267.85 1033.64 1267.88 1062.78C1267.9 1088.55 1261.3 1110.39 1248.26 1127.68Z" fill="white"/>
<path d="M1262.75 973.026C1254.19 958.261 1254.32 942.615 1263.09 930.108L1265.12 931.535C1256.94 943.223 1256.85 957.889 1264.9 971.785L1262.75 973.026Z" fill="white"/>
<path d="M1274.08 1013.37L1273.16 1011.07C1295.88 1002.03 1300.71 987.579 1301.55 979.763C1302.64 969.725 1298.54 959.415 1291.56 954.7C1290.31 953.856 1288.28 953.595 1286.27 954.017C1284.93 954.303 1282.46 955.134 1280.92 957.578L1278.82 956.263C1280.32 953.881 1282.78 952.231 1285.76 951.598C1288.46 951.027 1291.15 951.424 1292.97 952.652C1300.67 957.864 1305.22 969.13 1304.03 980.048C1303.12 988.398 1298.02 1003.86 1274.08 1013.37Z" fill="white"/>
<path d="M609.132 911.038L606.725 910.443C610.721 894.288 618.401 878.779 628.959 865.603L630.895 867.153C620.56 880.045 613.028 895.219 609.132 911.038Z" fill="white"/>
<path d="M807.13 1103.92C799.499 1103.92 789.908 1101.03 781.124 1096.04L782.352 1093.89C791.323 1098.99 801.087 1101.8 808.482 1101.4C816.088 1101.01 823.036 1099.22 829.103 1096.08L830.245 1098.29C823.855 1101.59 816.584 1103.48 808.619 1103.89C808.122 1103.91 807.626 1103.92 807.13 1103.92Z" fill="white"/>
<path d="M879.204 1103.77C870.556 1101.98 862.169 1099.05 854.29 1095.08L855.407 1092.86C863.099 1096.73 871.276 1099.58 879.7 1101.34L879.204 1103.77Z" fill="white"/>
<path d="M980.015 1100.91C972.744 1100.91 965.56 1099.2 958.463 1095.75L959.543 1093.51C976.28 1101.64 993.688 1099.63 1011.28 1087.55L1012.68 1089.59C1001.72 1097.14 990.785 1100.91 980.015 1100.91Z" fill="white"/>
<path d="M1058.81 1086.64C1056.07 1086.64 1053.33 1086.41 1050.6 1085.93L1051.02 1083.49C1066.35 1086.17 1082.2 1080.82 1095.66 1068.44L1097.34 1070.26C1085.69 1080.98 1072.26 1086.64 1058.81 1086.64Z" fill="white"/>
<path d="M1013.12 421.281L1003.09 412.199L958.29 425.214L946.553 418.155L892.804 434.197L880.508 427.138L855.122 438.863L865.842 438.999L879.143 435.215L888.933 446.319L942.433 430.277L942.495 430.339L952.806 441.381L996.951 428.428L1003.99 438.404L1053.85 424.42C1054.97 424.42 1055.49 423.031 1054.65 422.299L1049.14 417.497C1048.6 417.026 1048.58 416.194 1049.11 415.71L1054.83 410.363C1055.64 409.618 1055.1 408.278 1054.01 408.278L1013.12 421.281Z" fill="black"/>
<path d="M1000.93 446.319L994.483 433.279L950.598 447.746L941.801 433.614L885.93 450.575L877.27 440.178L854.626 440.14L854.416 445.724L875.893 449.756L886.154 465.725L939.468 449.806L949.58 466.208L990.686 453.255L998.143 466.208L1047.59 451.977C1048.7 451.977 1049.22 450.587 1048.38 449.855L1042.71 443.962C1042.18 443.49 1042.15 442.659 1042.69 442.175L1048.58 433.378C1049.39 432.634 1048.85 431.294 1047.76 431.294L1000.93 446.319Z" fill="black"/>
<path d="M877.071 739.444H929.765V940.953H823.62C812.627 940.953 803.719 932.045 803.719 921.052V904.81C803.719 893.321 806.274 881.968 811.2 871.583L877.071 739.444Z" fill="black"/>
<path d="M1041.89 932.95C1041.89 932.95 1023.45 920.766 1015.6 915.604C1005.55 908.979 1002.5 900.331 1000.93 891.683L927.656 484.261H757.216L759.201 465.153H662.485L649.879 543.432C647.001 561.286 660.785 577.465 678.875 577.465H796.895C813.223 577.465 827.467 588.545 831.487 604.364L916.453 941.35H1039.68C1044.39 941.362 1045.14 934.724 1041.89 932.95Z" fill="#274D76"/>
<path d="M872.778 491.346H830.121V430.363H842.938L872.778 491.346Z" fill="#EC8C92"/>
<path d="M821.585 426.505V463.628C821.585 466.581 823.98 468.988 826.945 468.988C841.586 468.988 852.827 457.151 852.963 438.528L853.298 438.304L821.585 426.505Z" fill="#F2BDBA"/>
<path d="M743.57 478.377L733.422 541.513L735.872 541.907L746.02 478.771L743.57 478.377Z" fill="black"/>
<path d="M861.165 424.06L826.598 397.955C824.538 396.416 821.598 397.88 821.598 400.461V426.517L853.311 438.304L860.756 433.44C862.716 432.162 863.858 429.842 863.386 427.546C863.101 426.206 862.356 424.953 861.165 424.06Z" fill="#93B4F6"/>
<path d="M852.963 438.528L821.585 430.252V421.418L855.122 437.113L852.963 438.528Z" fill="black"/>
<path d="M889.838 484.261H757.215L759.188 465.153H743.443L740.527 484.261L882.617 573.309L889.838 484.261Z" fill="#93B4F6"/>
<path d="M885.881 533.072L889.839 484.262H808L885.881 533.072Z" fill="white"/>
<path d="M768.494 483.702L745.218 495.924C735.366 501.098 723.195 497.016 718.455 486.941L707.177 462.994L760.317 444.78C766.645 442.609 773.258 447.187 773.482 453.863L774.127 474.025C774.251 478.069 772.067 481.829 768.494 483.702Z" fill="#EC8C92"/>
<path d="M755.032 422.92V454.931L828.235 441.717C829.551 441.432 830.481 440.265 830.481 438.913C830.481 437.573 829.551 436.407 828.235 436.109L755.032 422.92Z" fill="#274D76"/>
<path d="M743.567 483.764C740.081 483.988 731.396 484.571 730.689 478.293C725.415 485.328 708.02 486.618 706.283 478.38C702.499 485.104 686.543 488.057 680.525 478.293C672.783 484.112 665.388 484.099 660.115 483.764C652.795 483.293 646.839 477.821 646.839 470.489V431.939C646.839 407.434 666.704 397.818 691.208 397.818H729.287C748.592 397.818 764.251 403.228 764.251 422.534V463.081C764.238 474.509 754.97 483.045 743.567 483.764Z" fill="#F2BDBA"/>
<path d="M642.41 471.904C634.283 473.132 617.223 475.204 617.223 475.204V402.311C617.223 402.311 634.296 404.184 642.41 405.611C654.16 407.695 664.024 415.289 664.024 427.225V450.278C664.024 462.226 654.209 470.117 642.41 471.904Z" fill="#274D76"/>
<path d="M520.854 363.624L520.246 512.463L594.033 495.974C612.955 491.768 626.429 474.993 626.429 455.6V420.413C626.429 401.02 612.967 384.245 594.033 380.039L520.854 363.624Z" fill="#93B4F6"/>
<path d="M519.626 512.5C533.009 512.5 543.858 479.154 543.858 438.019C543.858 396.884 533.009 363.537 519.626 363.537C506.243 363.537 495.395 396.884 495.395 438.019C495.395 479.154 506.243 512.5 519.626 512.5Z" fill="#274D76"/>
<path d="M1019.77 343.413H905.869V271.896H1005.1C1013.21 271.896 1019.77 278.46 1019.77 286.562V343.413Z" fill="#74BAAB"/>
<path d="M1019.66 297.17V290.035C1019.66 288.435 1018.37 287.145 1016.77 287.145C1015.17 287.145 1013.88 288.435 1013.88 290.035V354.008C1013.88 366.75 1024.2 377.073 1036.94 377.073H1155.46C1161.92 377.073 1164.7 368.885 1159.59 364.939L1126.16 339.169C1123.89 337.419 1123.67 334.057 1125.7 332.035L1145.15 312.605C1147.95 309.8 1145.96 305.024 1142.01 305.024H1027.51C1023.18 305.024 1019.66 301.512 1019.66 297.17Z" fill="#74BAAB"/>
<path d="M922.086 941.374L907.383 264.265H901.502V941.374H922.086Z" fill="#FFF3A1"/>
<path d="M901.502 1050.67V1116.02C909.356 1116.88 917.582 1115.6 925.883 1111.85L924.543 1050.68H901.502V1050.67Z" fill="#FFF3A1"/>
<path d="M904.256 268.844C900.36 268.844 897.209 265.692 897.209 261.796C897.209 257.9 900.36 254.749 904.256 254.749C908.152 254.749 911.304 257.9 911.304 261.796C911.304 265.68 908.152 268.844 904.256 268.844Z" fill="#FFF3A1"/>
<path d="M864.912 537.973L860.085 536.595C854.167 534.908 850.742 528.741 852.417 522.823L857.405 505.316C859.663 497.4 867.902 492.822 875.818 495.08L877.034 495.428C882.952 497.115 886.389 503.281 884.701 509.2L878.684 530.305C876.996 536.223 870.83 539.66 864.912 537.973Z" fill="#EC8C92"/>
<path d="M885.632 575.853H1029.78C1040.25 575.853 1048.75 567.353 1048.75 556.882V525.751C1048.75 496.656 1025.17 473.082 996.083 473.082H906.043C881.563 473.082 864.664 488.393 868.088 507.376C862.592 512.463 862.939 524.722 868.001 530.739C863.907 537.65 865.433 550.244 872.034 553.346C868.659 560.07 872.902 575.853 885.632 575.853Z" fill="#F2BDBA"/>
<path d="M996.083 473.082H932.867C946.763 473.082 958.042 484.348 958.042 498.257V559.4C958.042 568.495 950.672 575.865 941.577 575.865H1029.79C1040.28 575.865 1048.76 567.366 1048.76 556.894V525.764C1048.75 496.656 1025.17 473.082 996.083 473.082Z" fill="#274D76"/>
<path d="M519.229 501.706C529.295 501.706 537.456 473.193 537.456 438.019C537.456 402.846 529.295 374.332 519.229 374.332C509.163 374.332 501.003 402.846 501.003 438.019C501.003 473.193 509.163 501.706 519.229 501.706Z" fill="black"/>
<path d="M843.348 444.135C842.802 443.478 842.181 442.981 841.474 442.622C839.774 441.741 837.715 441.728 835.556 441.716H835.37L835.394 439.234H835.568C837.926 439.259 840.37 439.272 842.603 440.425C843.608 440.934 844.489 441.654 845.246 442.56L843.348 444.135Z" fill="black"/>
<path d="M828.868 456.829C828.496 456.829 828.124 456.829 827.764 456.829H827.131L827.144 454.347H827.776C830.878 454.372 834.39 454.397 836.065 452.486L837.938 454.124C835.754 456.606 832.206 456.829 828.868 456.829Z" fill="black"/>
<path d="M860.557 483.021H820.655V485.502H860.557V483.021Z" fill="black"/>
<path d="M856.971 493.579H838.075V496.061H856.971V493.579Z" fill="black"/>
<path d="M904.256 270.085C899.69 270.085 895.968 266.363 895.968 261.797H898.449C898.449 264.998 901.055 267.604 904.256 267.604C907.457 267.604 910.062 264.998 910.062 261.797H912.544C912.544 266.363 908.834 270.085 904.256 270.085Z" fill="black"/>
<path d="M902.742 1063.38H900.26V1104.56H902.742V1063.38Z" fill="black"/>
<path d="M1018.89 946.139C1018.58 946.114 1018.28 946.102 1017.97 946.102H809.687C809.377 946.102 809.067 946.114 808.769 946.139C801.635 946.66 797.28 953.571 799.86 959.626C804.687 970.941 820.779 1008.49 831.077 1030.21C832.393 1032.99 837.839 1043.26 839.502 1045.29C846.661 1054.03 855.309 1055.2 860.408 1055.2H904.988H922.694H967.273C972.373 1055.2 981.021 1054.03 988.18 1045.29C989.83 1043.26 995.277 1032.99 996.605 1030.21C1006.9 1008.49 1023 970.941 1027.82 959.626C1030.38 953.571 1026.02 946.672 1018.89 946.139Z" fill="#93B4F6"/>
<path d="M967.26 1053.97H860.395V1056.45H967.26V1053.97Z" fill="black"/>
<path d="M988.911 1036.04H971.317V1033.56H988.911V1036.04ZM968.402 1036.04H945.671V1033.56H966.528L987.174 961.202L989.556 961.884L968.402 1036.04ZM931.353 1036.04H909.988V1033.56H929.207L939.604 959.899L942.061 960.246L931.353 1036.04ZM897.022 1036.04H874.304V1033.56H894.106L882.319 960.234L884.763 959.837L897.022 1036.04ZM859.986 1036.04H838.732V1033.56H856.623L835.469 964.378L837.839 963.646L859.986 1036.04Z" fill="black"/>
<path d="M518.857 433.068C518.857 449.322 520.731 462.498 516.078 462.498C511.425 462.498 507.653 449.322 507.653 433.068C507.653 416.814 511.425 403.638 516.078 403.638C520.731 403.625 518.857 416.814 518.857 433.068Z" fill="#74BAAB"/>
<path d="M1015.12 292.827H1012.63V357.321H1015.12V292.827Z" fill="black"/>
<path d="M872.183 504.126L870.818 502.054C879.231 496.495 888.226 491.098 888.313 491.036L889.591 493.158C889.492 493.232 880.558 498.605 872.183 504.126Z" fill="black"/>
<path d="M873.424 527.327L872.121 525.218C880.806 519.882 890.422 514.237 890.521 514.188L891.774 516.322C891.687 516.371 882.084 522.004 873.424 527.327Z" fill="black"/>
<path d="M876.761 551.025L875.545 548.867C882.27 545.057 890.496 540.628 890.571 540.591L891.749 542.774C891.663 542.824 883.461 547.241 876.761 551.025Z" fill="black"/>
<path d="M732.376 476.06L730.229 474.832C731.706 472.251 732.488 469.311 732.488 466.333V447.015H734.969V466.333C734.957 469.733 734.063 473.107 732.376 476.06Z" fill="black"/>
<path d="M708.392 474.769L706.085 473.864C706.854 471.879 707.251 469.782 707.251 467.635V446.865H709.732V467.635C709.732 470.104 709.273 472.499 708.392 474.769Z" fill="black"/>
<path d="M682.226 475.167L680.03 474.001C681.332 471.544 682.015 468.777 682.015 465.985V447.635H684.496V465.985C684.509 469.186 683.727 472.363 682.226 475.167Z" fill="black"/>
<path d="M902.507 304.516H900.025V461.221H902.507V304.516Z" fill="black"/>
<path d="M902.507 579.302H900.025V736.007H902.507V579.302Z" fill="black"/>
</g>
<defs>
<clipPath id="clip0_23_681">
<rect width="1840" height="1380" fill="white"/>
</clipPath>
</defs>
</svg>
